<?xml version="1.0" encoding="UTF-8"?>
<svg xmlns="http://www.w3.org/2000/svg" xmlns:xlink="http://www.w3.org/1999/xlink" width="900pt" height="899.99999pt" viewBox="0 0 900 899.99999" version="1.2">
<defs>
<clipPath id="clip1">
  <path d="M 9.15625 13 L 882 13 L 882 886 L 9.15625 886 Z M 9.15625 13 "/>
</clipPath>
</defs>
<g id="surface1">
<g clip-path="url(#clip1)" clip-rule="nonzero">
<path style=" stroke:none;fill-rule:evenodd;fill:rgb(100%,100%,100%);fill-opacity:1;" d="M 223.871094 365.007812 C 216.488281 357.417969 216.285156 344.910156 223.871094 337.117188 L 299.339844 261.851562 C 307.132812 254.058594 322.105469 247.90625 332.972656 247.90625 L 480.21875 247.90625 L 599.78125 128.347656 L 585.835938 114.195312 C 563.070312 91.433594 562.867188 53.902344 585.835938 30.933594 C 609.214844 7.761719 646.332031 7.761719 669.300781 30.730469 L 864.332031 225.964844 C 887.300781 248.933594 887.300781 286.257812 864.332031 309.226562 C 841.15625 332.605469 803.832031 332.398438 780.863281 309.429688 L 766.917969 295.484375 L 647.359375 414.839844 L 647.359375 562.085938 C 647.359375 572.957031 641.207031 588.132812 633.414062 595.925781 L 557.945312 671.1875 C 550.355469 678.980469 537.847656 678.980469 530.257812 671.1875 L 403.929688 545.066406 L 43.402344 880.574219 C 35.40625 887.957031 22.484375 887.546875 15.101562 880.164062 C 7.515625 872.371094 7.105469 859.859375 14.488281 851.863281 L 350.199219 491.335938 Z M 223.871094 365.007812 "/>
</g>
</g>
</svg>
